
<svg xmlns="http://www.w3.org/2000/svg" viewBox="0 0 64 64">
  <!-- Hintergrund -->
  <rect width="64" height="64" rx="7" fill="#1F2322"/>

  <!-- Katze (leicht größer skaliert, zentriert) -->
  <g transform="translate(32 32) scale(1.26) translate(-32 -32)">

    <!-- Kopf -->
    <path
      d="M20 33C20 22 44 22 44 33 44 46 20 46 20 33Z"
      fill="#F5F7F6"/>

    <!-- Ohren -->
    <path
      d="M28 25Q23 26 21 29L19 22Z"
      fill="#F5F7F6"/>

    <path
      d="M36 25Q41 26 43 29L45 22Z"
      fill="#F5F7F6"/>

<!-- Augen --> 
    <path
      d="M23 31A1 .5-5 0030 30Q26 28 23 31"
      fill="#1F2322"/>
    <path
      d="M41 31A1-.5 5 0134 30Q38 28 41 31"
      fill="#1F2322"/>


  </g>
</svg>
