<svg version="1.1" id="Layer_1" xmlns="http://www.w3.org/2000/svg" xmlns:xlink="http://www.w3.org/1999/xlink" x="0px" y="0px"
	 width="100%" viewBox="0 0 1024 1024" enable-background="new 0 0 1024 1024" xml:space="preserve">


  <!-- Hintergrund -->
  <rect width="100%" height="100%" fill="#f7f3e8c4" rx="40%" />

  <!-- DEIN KOMPLETTER ORIGINAL-INHALT (unverändert) -->
  <!-- ... alle deine <path> bleiben exakt wie sie sind ... -->

  <!-- ========================= -->
  <!-- EDLES DÜNNES GOLD-FRAME -->
  <!-- ========================= -->
  <defs>
    <linearGradient id="goldFrame" x1="0%" y1="0%" x2="100%" y2="100%">
      <stop offset="0%"   stop-color="#FFF4C2"/>
      <stop offset="45%"  stop-color="#E6C86E"/>
      <stop offset="55%"  stop-color="#C9A23A"/>
      <stop offset="100%" stop-color="#FFF1B0"/>
    </linearGradient>
  </defs>

  <rect

    width="100%"
    height="100%"
    rx="40%"
    fill="none"
    stroke="url(#goldFrame)"
    stroke-width="2%"/>



<path fill="#10141b" opacity="1.000000" stroke="none" 
	d="
M411.020447,774.994080 
	C413.409546,778.163940 417.273621,777.659973 420.487946,778.614624 
	C426.475220,780.392578 432.286285,782.448303 436.708130,787.015991 
	C440.043213,790.461121 442.754395,794.600220 440.643036,799.589172 
	C438.621277,804.366455 434.038818,805.293274 429.326752,805.299133 
	C418.993774,805.312012 408.660614,805.236145 398.327759,805.266174 
	C395.738678,805.273682 394.001068,804.835083 393.418121,801.713135 
	C391.247437,790.088501 383.921295,782.173523 374.250580,776.094360 
	C355.312164,764.189514 334.508698,761.487305 312.771210,763.975464 
	C288.444092,766.760193 264.739777,773.189331 240.507492,776.579468 
	C220.605820,779.363647 200.763031,780.161926 180.690979,775.082947 
	C183.555206,778.178772 184.482330,778.771057 189.370239,780.489990 
	C208.926926,787.367126 228.929810,787.032715 249.083435,784.131958 
	C270.333191,781.073486 290.940308,774.578430 312.308655,772.194214 
	C329.003540,770.331482 345.585205,770.490417 361.520142,776.786316 
	C372.383789,781.078552 381.452881,787.508362 386.164307,798.759644 
	C386.357208,799.220337 386.581451,799.680847 386.684540,800.164185 
	C389.088959,811.437195 386.037720,817.211609 374.413788,814.437927 
	C366.819489,812.625793 359.404358,810.007263 351.767212,808.441345 
	C334.167053,804.832458 316.606537,807.136780 299.153748,809.860107 
	C277.291779,813.271545 255.748810,818.667725 233.683121,820.804199 
	C204.767746,823.604004 176.455063,821.430237 149.552994,809.345520 
	C143.872070,806.793579 138.969406,803.067139 134.887451,798.303650 
	C125.183876,786.979919 124.459167,773.343750 133.075516,761.121277 
	C138.208710,753.839661 145.077209,748.752014 153.367096,745.483093 
	C159.973557,742.878052 159.957108,742.790222 158.480820,735.753113 
	C154.883835,718.606995 152.944397,701.269958 152.755890,683.759521 
	C152.076324,620.634155 175.537949,569.113831 226.217834,530.531616 
	C238.560608,521.135193 251.911743,513.186035 264.043182,503.529083 
	C285.079132,486.783936 301.918579,467.026703 308.862152,440.274017 
	C312.690399,425.524231 312.663300,410.658356 310.348083,395.699066 
	C309.333344,389.142456 307.876495,382.640961 308.505524,375.894653 
	C308.889404,371.777344 307.080902,368.102356 305.220825,364.527161 
	C299.909424,354.318390 294.188446,344.339935 287.633087,334.884979 
	C285.426270,331.702026 285.794189,329.921356 288.792358,327.526459 
	C317.194763,304.838806 348.809235,289.357605 385.010437,283.860840 
	C389.765289,283.138885 393.142731,283.753662 395.451782,288.701935 
	C397.976318,294.111969 401.330261,299.150238 404.513641,304.230927 
	C406.043945,306.673187 405.761505,308.253723 403.562500,310.163269 
	C395.726166,316.968170 389.439056,325.006683 384.725433,335.046051 
	C398.582550,321.982147 413.070038,310.922394 429.955505,303.363770 
	C433.585358,301.738892 437.476349,300.698029 441.245575,299.383881 
	C445.202332,298.004425 446.386139,299.638092 445.977875,303.478210 
	C445.007202,312.608246 442.540009,321.446594 440.845490,330.434021 
	C439.901062,335.443115 441.318146,338.784973 446.121643,340.819550 
	C452.109772,343.355865 457.696259,346.514893 462.872620,350.613464 
	C470.667480,356.785339 474.972168,364.683014 476.246674,374.314270 
	C477.251312,381.906067 481.119324,387.123199 487.879730,390.614258 
	C496.973114,395.309998 497.431732,397.788269 491.426941,406.299133 
	C490.951263,406.973328 490.413361,407.668335 490.177368,408.437439 
	C484.743164,426.146729 471.312927,432.702454 454.273285,434.297668 
	C451.792480,434.529907 449.318634,434.912964 446.866760,435.363251 
	C439.539856,436.708923 435.754944,442.566376 436.685120,450.031311 
	C438.229034,462.421936 442.987518,473.801605 447.277557,485.327789 
	C462.662415,526.662720 460.540405,567.211853 442.021667,607.062378 
	C438.439941,614.769836 434.600830,622.337341 430.216583,629.637756 
	C424.985596,638.348083 424.611389,648.366699 423.378876,658.041809 
	C420.804016,678.254211 420.421326,698.565674 422.396088,718.858765 
	C423.668976,731.938721 425.758820,744.910034 428.772461,757.723999 
	C429.461609,760.654358 430.948151,761.671936 433.944427,761.864075 
	C442.754822,762.429382 450.971985,764.934387 457.959961,770.609436 
	C459.375793,771.759277 460.755157,773.003845 461.929443,774.392456 
	C466.724884,780.063293 467.679504,787.114685 464.414429,791.910095 
	C461.229004,796.588440 451.769165,799.365417 445.804108,797.535278 
	C443.941681,796.963867 443.157104,796.010132 442.856812,794.088989 
	C440.703094,780.312256 431.675598,773.744568 417.473999,775.497131 
	C415.534302,775.736450 413.586304,776.728577 411.243134,774.851196 
	C406.185181,756.918884 402.564301,739.387512 400.375061,721.524414 
	C398.183929,703.646057 397.700226,685.691711 397.189270,667.744934 
	C396.686127,650.072144 398.235352,632.406738 398.661285,614.693665 
	C397.652618,615.355896 397.194885,616.045044 396.904938,616.798767 
	C396.308929,618.348145 395.716705,619.908203 395.272278,621.505371 
	C384.369141,660.690308 386.567566,699.826355 395.986816,738.865723 
	C399.073364,751.658325 403.271667,764.091675 411.020447,774.994080 
M334.415009,688.313049 
	C339.777130,707.508057 339.723480,726.931152 337.061005,746.500122 
	C349.673767,722.533386 348.203613,697.937866 339.244537,673.470764 
	C328.253510,643.454285 300.397736,618.432190 275.848755,615.172913 
	C305.372437,630.969604 324.678406,655.293091 334.415009,688.313049 
z"/>
<path fill="#10141b" opacity="1.000000" stroke="none" 
	d="
M743.000000,796.299561 
	C704.512329,796.215820 666.524048,796.231140 628.537354,795.993835 
	C615.219849,795.910706 601.901917,795.301514 588.594849,794.698364 
	C586.204590,794.590027 582.182617,795.221313 582.198547,791.626282 
	C582.213928,788.144531 586.109192,788.718689 588.585632,788.536499 
	C594.559692,788.097107 600.554321,787.756165 606.542542,787.724731 
	C625.347412,787.625977 644.153137,787.688354 662.958496,787.688354 
	C663.022644,787.163208 663.086731,786.638062 663.150879,786.112915 
	C661.504150,785.354065 659.836121,784.637939 658.214050,783.829590 
	C645.224121,777.356506 638.219360,766.846130 636.611938,752.442810 
	C635.330994,740.965149 636.082581,729.477661 635.902283,717.995850 
	C635.780701,710.252319 635.749878,710.115662 627.804504,709.366882 
	C620.600403,708.687927 613.758850,706.602783 607.168274,703.764832 
	C600.173401,700.752747 598.415405,696.680542 600.486206,689.329041 
	C601.921387,684.234131 604.278198,682.831421 609.401062,684.598816 
	C616.363403,687.000854 623.343445,688.953247 630.814514,688.880981 
	C634.292786,688.847412 636.356140,688.072021 635.604919,684.067383 
	C634.845215,680.017273 637.734314,678.838440 640.719666,677.975342 
	C651.154175,674.958618 661.919495,673.901550 672.660461,672.685486 
	C701.346924,669.437683 730.190674,669.332275 758.970276,669.316162 
	C792.572449,669.297424 826.219055,670.086121 859.517944,675.602417 
	C861.813354,675.982666 864.101990,676.429504 866.368042,676.956177 
	C874.564392,678.861145 875.291321,679.810669 874.857239,688.227173 
	C880.942871,689.545471 886.934265,688.649536 892.892578,687.235718 
	C894.506348,686.852783 896.070007,686.242554 897.637329,685.682556 
	C904.494385,683.232910 907.043579,683.777161 909.025757,688.149292 
	C911.718689,694.089050 910.216370,700.005432 904.987183,702.969666 
	C898.509460,706.641785 891.236328,707.900818 884.044861,709.248779 
	C872.199890,711.468994 873.409790,708.480591 873.344238,721.520081 
	C873.304016,729.517578 873.280640,737.515686 873.337463,745.512939 
	C873.469727,764.126892 867.019531,778.674500 848.562500,786.632446 
	C852.090027,786.632446 855.619446,786.558105 859.144836,786.644958 
	C876.460388,787.071167 893.775940,787.505798 911.088501,788.035034 
	C913.394409,788.105530 915.710327,788.617188 917.968689,789.149170 
	C919.099426,789.415649 920.098206,790.267212 920.033691,791.645142 
	C919.970398,792.994568 918.977051,793.820190 917.805176,794.013000 
	C914.854919,794.498413 911.875366,795.029175 908.898132,795.091736 
	C887.257019,795.546448 865.614685,796.096680 843.970581,796.220581 
	C810.481323,796.412354 776.990295,796.288940 743.000000,796.299561 
M750.500061,687.332886 
	C715.966370,687.175354 681.498535,685.552979 647.041565,682.463562 
	C647.979614,683.419983 648.963318,683.993469 650.020874,684.343262 
	C651.596375,684.864319 653.204773,685.326355 654.832336,685.643250 
	C677.936401,690.141357 701.363953,691.868042 724.801331,692.463745 
	C765.268799,693.492371 805.743591,693.220642 845.959595,687.553528 
	C851.884155,686.718689 857.963379,686.115967 863.188538,682.549133 
	C826.024658,686.525024 788.793152,687.648071 750.500061,687.332886 
M664.400330,698.396362 
	C661.935913,698.311157 658.968506,697.577637 659.437073,701.738281 
	C660.947021,715.147949 662.746643,728.501892 669.067993,740.713867 
	C671.184631,744.802795 673.586670,748.717834 678.235229,751.166687 
	C678.504639,750.163452 678.805847,749.565979 678.804749,748.969116 
	C678.776062,733.653748 678.681885,718.338379 678.691406,703.023071 
	C678.693176,700.157959 677.340942,699.303955 674.708984,699.235291 
	C671.555908,699.153076 668.411438,698.742432 664.400330,698.396362 
z"/>
<path fill="#10141b" opacity="1.000000" stroke="none" 
	d="
M252.797974,323.416626 
	C233.868271,314.124817 224.957901,296.613922 227.759995,274.788177 
	C230.335541,254.727020 244.779282,238.579483 264.171478,235.395752 
	C269.933868,234.449707 273.482697,232.274124 276.947021,227.751663 
	C284.709808,217.617767 295.655182,212.954330 308.266785,212.801071 
	C313.428772,212.738373 317.196808,211.334763 321.079102,207.758713 
	C332.374939,197.353989 346.359192,194.110367 361.328369,194.738541 
	C376.479675,195.374374 390.546082,199.415680 402.478943,209.264404 
	C419.336761,223.177887 423.126923,246.351501 411.251953,262.953979 
	C407.816742,267.756744 403.570587,271.665344 398.148987,274.241516 
	C388.786377,278.690308 386.525085,277.572632 385.188599,266.981018 
	C380.463226,272.030090 376.700134,277.600037 370.494019,280.352234 
	C363.950684,283.253967 357.614685,283.506134 351.184326,278.560608 
	C344.631439,298.680969 329.724518,292.341248 316.287598,289.760468 
	C315.041626,291.008972 315.881134,291.834778 316.320892,292.676300 
	C319.399414,298.566681 318.052795,302.800446 311.953796,305.514771 
	C303.488678,309.282166 294.712921,308.396515 285.944611,306.850616 
	C283.849030,306.481110 281.782043,305.949524 278.916687,305.319977 
	C281.732788,308.854279 285.100677,310.200226 288.243622,311.847076 
	C293.131592,314.408203 293.514740,316.533997 289.476654,320.408600 
	C282.898346,326.720551 274.592926,327.391815 266.155060,326.896545 
	C261.686798,326.634277 257.306915,325.389038 252.797974,323.416626 
z"/>
<path fill="#10141b" opacity="1.000000" stroke="none" 
	d="
M757.409058,600.385254 
	C751.575745,605.951294 745.325195,610.168701 737.940491,612.774902 
	C737.100403,610.723389 738.663452,610.212463 739.564575,609.442810 
	C750.836548,599.815002 756.597290,579.803284 742.966858,564.827576 
	C737.378113,558.687195 731.502625,552.634338 727.894653,544.991394 
	C720.613525,529.567505 722.412292,514.548584 730.526306,500.027893 
	C736.992065,488.457001 746.306091,479.471344 756.998535,471.831848 
	C757.734863,471.305756 758.523560,470.392700 760.263794,471.533997 
	C757.255554,475.029236 753.716309,477.963654 751.095215,481.683044 
	C741.896423,494.736328 736.208496,508.770081 738.278687,525.122192 
	C739.293823,533.140137 742.861206,540.034668 747.827271,546.238281 
	C751.469116,550.787720 755.553162,554.992798 759.063049,559.636353 
	C769.327209,573.215881 768.757263,587.222229 757.409058,600.385254 
z"/>
<path fill="#10141b" opacity="1.000000" stroke="none" 
	d="
M782.627869,596.496582 
	C787.817261,581.915466 784.471069,569.677795 774.145325,559.002319 
	C766.914612,551.526733 760.087158,543.726257 758.235046,532.986267 
	C756.434570,522.546082 758.886963,512.923218 763.948669,503.796326 
	C766.068298,504.475281 765.329407,505.793396 765.109558,506.779572 
	C761.976074,520.836243 766.358765,532.315002 776.894775,541.782654 
	C782.713196,547.010925 788.864136,551.906372 793.735962,558.114746 
	C807.026245,575.051270 803.940613,596.771057 786.540833,609.510498 
	C779.319214,614.797852 771.130554,618.046936 762.909302,621.269409 
	C762.180054,621.555237 761.319946,621.873169 760.061829,620.669983 
	C769.711182,614.709351 777.968445,607.468872 782.627869,596.496582 
z"/>
</svg>
