<svg version="1.1" id="Layer_1" xmlns="http://www.w3.org/2000/svg" xmlns:xlink="http://www.w3.org/1999/xlink" x="0px" y="0px"
	 width="100%" viewBox="0 0 1024 1024" enable-background="new 0 0 1024 1024" xml:space="preserve">
 


<style>
    :root {
      --ink: #111;
      --gold: #d2b254;
    }

    /* Loader-Ring */
    .ring {
      fill: none;
      stroke: var(--gold);
      stroke-width: 5.5;
      stroke-linecap: round;
      stroke-dasharray: 0.28 0.72;
      animation: ring 50.4s linear infinite;
      transform-origin: 50% 50%;
    }

    @keyframes ring {
      to { transform: rotate(360deg); }
    }


/* Dampf */
    .steam {
      fill: #585551ff;
      stroke: #585551ff;
      stroke-width: 2.6;
      opacity: 0;
      animation: steam 1.8s ease-in-out infinite;
    }
    .steam.s2 { animation-delay: .2s; }
    .steam.s3 { animation-delay: .8s; }

    @keyframes steam {
      0%   { opacity: 0; transform: translateY(6%); }
      20%  { opacity: .4; }
      60%  { opacity: .3; transform: translateY(-6%); }
      100% { opacity: 0; transform: translateY(-12%); }
    }

    /* Linien */
    .ink {
      stroke: #585551ff;
      fill: none;
      stroke-linecap: round;
      stroke-linejoin: round;
      stroke-width: 2.4;
    }
    .fill {
      fill: #585551ff;
    }


  </style>
  <!-- Hintergrund -->
    <rect
	width="100%"
    height="100%"
	rx="40%"
	fill="#f7f3e8c4" 
  />
  <!-- Goldring (innen transparent) -->
  <circle
    class="ring"
    cx="490"
    cy="490"
    r="450"
    pathLength="20"
  />




<path class="Cat" fill="#10141b" opacity="1.000000" stroke="none" 
	d="
M423.145538,306.152802 
	C435.850067,299.325104 448.406860,292.195374 461.353363,285.862305 
	C465.015228,284.071045 469.816040,284.608154 474.094482,284.077393 
	C473.838470,288.269989 473.816864,292.494232 473.255585,296.645508 
	C472.767273,300.257111 471.863342,303.845795 470.793182,307.337372 
	C469.335693,312.092529 471.210541,314.880219 475.364929,316.988281 
	C479.351410,319.011139 483.457062,321.023102 486.941620,323.763153 
	C493.608978,329.006042 497.600006,336.232666 498.800873,344.540863 
	C499.899139,352.138885 503.295715,357.370239 510.206787,360.879761 
	C516.943604,364.300842 517.182678,366.670502 512.997437,373.089813 
	C511.551636,375.307373 510.167755,377.620361 509.154236,380.055664 
	C502.882782,395.124969 491.941925,401.353546 475.824005,398.880035 
	C469.792358,397.954376 468.454651,399.048279 469.414001,405.037903 
	C472.487976,424.229340 481.853546,440.481995 494.435486,454.761169 
	C500.984558,462.193634 509.103241,468.245605 516.541504,474.889130 
	C517.590149,475.825745 518.802002,476.579742 519.552429,478.376770 
	C508.224152,476.235107 496.895874,474.093445 485.090881,471.861664 
	C495.385284,480.221832 507.287598,482.447479 519.400269,483.950928 
	C535.422424,485.939575 551.494324,487.554321 567.482544,489.777893 
	C576.482971,491.029572 584.271179,495.416534 590.302368,502.193604 
	C595.712952,508.273254 601.129395,514.528320 605.308533,521.451355 
	C607.588318,525.228088 607.263000,530.560974 608.194519,535.175537 
	C608.617188,537.269226 608.583740,539.950745 609.873169,541.295776 
	C620.806519,552.700439 631.827820,564.033569 643.180298,575.018616 
	C649.152405,580.797424 655.895081,585.773560 662.173645,591.245483 
	C664.512573,593.283875 666.520569,595.702148 669.224365,598.513916 
	C661.481445,601.337341 654.571533,600.902710 648.469971,597.294189 
	C642.517761,593.774170 636.869629,589.464600 631.847046,584.701294 
	C618.429626,571.976440 606.227844,558.128174 595.061523,542.549744 
	C598.240906,542.126587 600.815491,541.783936 603.220520,541.463867 
	C601.565002,539.604553 600.221436,538.095581 598.905334,536.617432 
	C596.806519,538.049622 594.515137,540.481018 591.761658,541.243408 
	C589.108215,541.978088 585.977356,540.988708 582.914062,540.745483 
	C584.885010,536.387329 586.338318,533.173645 587.791687,529.959900 
	C587.418640,529.702759 587.045654,529.445557 586.672607,529.188416 
	C584.274048,534.290894 580.133423,536.839966 574.848877,536.713074 
	C568.676941,536.565002 564.741272,532.493774 560.907043,527.567444 
	C566.164062,526.695007 570.308350,525.096375 570.248840,518.432190 
	C566.437317,524.235718 562.209045,523.898315 556.593506,521.592285 
	C553.348145,520.259521 548.756836,521.658875 544.901611,522.457764 
	C532.696045,524.987183 520.586731,527.982910 508.374695,530.477905 
	C495.020020,533.206299 481.612915,533.726440 468.265594,530.167175 
	C467.348236,529.922485 466.335724,530.034546 465.367462,529.980713 
	C465.183777,530.442932 465.000092,530.905212 464.816376,531.367432 
	C472.700165,534.881104 480.583954,538.394775 489.153015,542.213867 
	C487.776855,546.477173 486.289795,551.520813 484.529877,556.467407 
	C470.239014,596.633728 463.337280,637.899902 466.180542,680.577271 
	C466.800018,689.875183 468.043823,699.132019 469.027802,708.404846 
	C469.531830,713.154419 472.515869,715.286987 476.799500,717.039246 
	C482.073059,719.196411 487.204529,722.048218 491.795074,725.419922 
	C495.588684,728.206177 496.133423,732.786987 494.588409,737.259460 
	C493.149200,741.425476 489.359863,742.549744 485.691071,742.410217 
	C475.233124,742.012207 464.770020,741.355774 454.357361,740.316162 
	C448.574371,739.738770 445.539764,735.922546 444.378418,730.104919 
	C440.699554,711.675842 436.728455,693.305054 432.847412,674.916565 
	C432.792145,674.654663 432.440186,674.455383 431.739166,673.704834 
	C428.873047,689.292908 430.259094,704.284973 432.853058,719.856628 
	C429.142578,717.323120 425.955719,714.921631 422.559113,712.866943 
	C407.759766,703.914612 391.399719,703.411743 375.083313,705.611389 
	C356.639130,708.097900 338.462311,712.580383 320.013397,715.013733 
	C308.708099,716.504944 297.110535,715.790405 285.643585,716.038879 
	C282.902710,716.098267 280.159424,716.047729 276.010315,716.047729 
	C290.679932,723.526672 305.012146,725.396851 319.645142,723.409546 
	C337.768402,720.948242 355.716125,717.213806 373.821594,714.596069 
	C389.166962,712.377441 404.423004,712.541443 418.606873,720.289062 
	C425.812164,724.224792 431.682831,729.421936 434.833252,737.239929 
	C437.610992,744.132996 434.264526,749.060913 426.839447,748.445618 
	C422.048553,748.048645 417.317657,746.905762 412.565826,746.063599 
	C394.622070,742.883606 376.708313,744.217529 358.810242,746.457825 
	C334.700073,749.475769 310.678009,753.626404 286.213287,751.880249 
	C272.227417,750.882019 258.292511,749.475281 245.249619,743.839172 
	C230.827164,737.607056 224.182968,723.594482 228.933823,710.122925 
	C231.429840,703.045227 236.302048,698.449646 243.245483,695.809387 
	C249.033783,693.608398 249.182556,692.981445 247.208649,687.409119 
	C229.841736,638.382324 239.224838,593.556946 271.114349,553.904785 
	C285.089661,536.527649 302.784882,522.092163 319.148041,506.700592 
	C333.203064,493.480042 346.043152,479.490601 354.190613,461.696869 
	C364.519745,439.138367 367.292297,415.341187 365.271912,390.980988 
	C364.426483,380.787506 361.589600,370.758972 359.647522,360.657471 
	C359.554108,360.171539 359.199249,359.694214 359.232025,359.231720 
	C360.337891,343.619263 350.749176,332.404877 343.248138,320.342102 
	C338.437775,312.606384 337.139526,314.141205 344.714539,307.002167 
	C361.886902,290.818054 382.810669,281.669281 405.413055,276.106262 
	C411.843781,274.523499 418.497620,273.672821 425.101868,273.018616 
	C431.784668,272.356567 432.316376,278.824219 435.091522,282.602081 
	C437.404358,285.750641 435.503845,288.052429 433.489532,290.519104 
	C429.703003,295.156036 426.162476,299.993866 422.159637,305.243744 
	C421.667755,306.081604 421.535919,306.423828 421.404114,306.766052 
	C421.984558,306.561615 422.565063,306.357208 423.145538,306.152802 
M380.837128,603.665100 
	C366.841431,589.245850 350.241913,581.564270 337.343964,583.578796 
	C383.547180,605.063904 401.352814,641.643066 394.038361,692.113953 
	C400.456421,685.824646 403.204803,678.883606 403.879730,671.318237 
	C406.164398,645.708679 397.944672,623.504089 380.837128,603.665100 
z"/>

<path class="pot" fill="#10141b" opacity="1.000000" stroke="none" 
	d="
M663.000000,743.885498 
	C564.735107,744.200134 543.429565,743.268738 536.684082,737.689453 
	C539.387024,736.944214 541.455994,735.927185 543.553711,735.863770 
	C567.190308,735.149048 590.831238,734.579773 614.471191,733.977234 
	C615.601318,733.948425 616.732727,733.973511 618.114868,733.226562 
	C615.489563,732.067139 612.815125,731.006592 610.246887,729.732239 
	C593.983643,721.661743 584.396973,708.865051 584.034790,690.428162 
	C583.645325,670.608459 583.994812,650.773865 584.047302,630.945862 
	C584.065247,624.165588 583.879700,624.723083 577.061768,623.885986 
	C568.400146,622.822571 559.784119,620.891724 551.363708,618.558105 
	C546.817810,617.298157 544.645569,613.229797 545.222046,608.293518 
	C545.962830,601.950745 549.088684,599.744019 555.516846,600.744934 
	C562.407410,601.817810 569.276184,603.259766 576.210571,603.755127 
	C582.568970,604.209351 583.763367,602.725159 583.860046,596.368774 
	C583.921265,592.338989 585.859863,589.153687 589.339661,588.244995 
	C599.757080,585.524292 610.339844,583.432983 620.877258,581.185730 
	C621.511597,581.050354 622.537659,581.498535 623.000366,582.015930 
	C625.938843,585.301575 628.770081,588.683105 632.048218,592.513977 
	C620.333374,593.294617 609.027893,591.313293 597.775879,596.462158 
	C600.041748,597.300903 601.697388,597.998474 603.405945,598.523621 
	C605.310425,599.108948 607.235779,599.758423 609.198853,599.999695 
	C625.703003,602.028320 642.174194,604.532288 658.738770,605.818726 
	C692.153198,608.413696 725.669678,609.082642 759.107544,606.733948 
	C778.317505,605.384644 797.416016,602.345032 816.527161,599.786438 
	C820.019897,599.318848 823.331970,597.502075 827.917114,595.889832 
	C820.181702,592.521667 813.590332,591.736084 806.592773,593.177429 
	C804.318665,593.645813 801.820129,593.225769 799.448669,592.978210 
	C794.677734,592.480042 789.830261,590.908813 785.178345,591.384338 
	C763.335815,593.617065 741.577271,592.337402 719.798096,590.787903 
	C718.559570,590.699768 717.309326,590.776489 714.701538,590.776489 
	C716.973328,592.159241 718.087769,592.837524 720.181946,594.112122 
	C712.832581,594.112122 706.596863,594.112122 698.777283,594.112122 
	C702.057251,592.980164 704.101196,592.274780 706.145142,591.569397 
	C706.092102,591.118347 706.039124,590.667358 705.986145,590.216309 
	C698.099365,590.216309 690.129944,589.492920 682.344788,590.382507 
	C670.065247,591.785706 661.543640,585.585510 652.526184,577.747559 
	C659.036194,577.178345 664.781921,576.476074 670.547974,576.204285 
	C707.359741,574.469666 744.191162,574.135498 780.926697,577.266663 
	C796.637268,578.605774 812.217651,581.582153 827.810120,584.105225 
	C831.002869,584.621887 834.195618,586.080872 837.011353,587.743896 
	C840.482910,589.794373 842.511108,592.998596 841.855286,597.382874 
	C841.171997,601.951050 843.651672,604.190796 847.821045,603.909668 
	C854.768677,603.441162 861.697754,602.541199 868.596985,601.558472 
	C874.428589,600.727844 877.717957,602.024719 879.257751,606.305603 
	C880.978821,611.090393 879.404724,615.529846 874.684204,618.159058 
	C866.294373,622.832153 857.106201,624.087219 847.664246,623.908020 
	C840.868530,623.779053 840.846191,623.791992 840.760498,630.806946 
	C840.536804,649.133606 840.545654,667.468994 839.938904,685.783569 
	C839.213806,707.673096 829.603821,723.952026 808.699402,732.523010 
	C808.300537,732.686523 807.982239,733.046814 807.040894,733.757080 
	C827.969666,734.831482 848.473633,733.087097 868.559753,736.792419 
	C868.654907,737.649719 868.750122,738.507019 868.845276,739.364319 
	C865.530457,740.236450 862.247070,741.700806 858.895325,741.879150 
	C843.763672,742.684387 828.614929,743.541748 813.468262,743.621704 
	C763.479797,743.885559 713.489502,743.821167 663.000000,743.885498 
M631.401367,664.624207 
	C631.513000,652.160400 631.703247,639.696655 631.713806,627.232788 
	C631.724121,615.037781 630.320435,613.757202 617.916382,613.853577 
	C617.584412,613.856140 617.095154,613.681274 616.944763,613.840271 
	C615.628357,615.232117 613.160278,616.803833 613.290833,618.093689 
	C614.307251,628.130005 615.189636,638.258484 617.392883,648.071228 
	C619.173645,656.001770 624.261780,662.437256 631.063232,667.999939 
	C631.203186,666.699280 631.272522,666.055298 631.401367,664.624207 
z"/>
<path  class="cookingHat" fill="#10141b" opacity="1.000000" stroke="none" 
	d="
M339.049896,290.905273 
	C335.680298,290.901581 332.801453,290.901581 328.651672,290.901581 
	C332.343903,292.931305 335.082092,294.286469 337.664886,295.891693 
	C341.519714,298.287445 341.768036,300.266083 338.354401,303.271179 
	C333.342407,307.683350 327.198303,309.256378 320.713104,308.784180 
	C302.474213,307.456268 288.817169,294.353088 286.411133,276.205872 
	C283.950256,257.645203 294.354919,240.037415 311.283142,234.118591 
	C312.225098,233.789246 313.152313,233.295898 314.121429,233.184921 
	C322.876862,232.182510 329.361206,228.131622 334.400848,220.607742 
	C338.629181,214.295090 345.988708,212.290726 353.304352,212.007294 
	C360.645050,211.722870 366.684692,209.596848 372.156494,204.418472 
	C378.968170,197.972000 387.936951,195.752487 397.019989,195.457474 
	C415.809570,194.847198 432.702484,199.638885 444.878937,215.187820 
	C455.309021,228.506714 453.465576,249.447983 441.139648,260.646332 
	C441.016388,260.758301 440.906067,260.912750 440.759857,260.967041 
	C436.692596,262.476929 432.585052,265.098511 428.567474,264.968201 
	C426.764160,264.909698 425.139526,259.341858 423.265869,255.971985 
	C415.253357,262.994507 408.050598,276.042297 392.826538,264.279053 
	C390.021118,278.468719 379.901611,277.756775 369.677460,276.954071 
	C367.222900,276.761353 364.740326,276.925415 361.781097,276.925415 
	C361.781097,278.448090 361.867615,279.728363 361.766479,280.993652 
	C361.266357,287.249512 358.385925,290.353699 352.022980,290.860962 
	C347.887238,291.190674 343.703094,290.913940 339.049896,290.905273 
z"/>
<path  class="steam s1" fill="#585551ff" opacity="1.000000" stroke="none" 
	d="
M710.750610,497.167175 
	C703.082825,486.590820 700.344910,474.878998 702.212830,462.598267 
	C703.626648,453.302673 706.888184,444.553589 715.812805,438.900940 
	C721.600281,435.235229 727.158813,430.738129 731.652039,425.593506 
	C742.065369,413.670624 740.713684,408.936096 730.168457,399.837341 
	C722.250183,393.005157 719.939758,380.774567 725.923340,372.350098 
	C729.159241,367.794189 733.110657,363.717743 737.001099,359.677063 
	C737.899353,358.744171 739.869873,358.843689 741.346985,358.468079 
	C741.657715,360.112671 742.481079,361.863556 742.166992,363.378632 
	C741.602234,366.103149 740.483154,368.741699 739.367615,371.317383 
	C736.620178,377.660980 739.169067,386.177155 746.499268,391.893860 
	C754.487305,398.123566 760.119507,405.873505 761.442078,416.453766 
	C762.625305,425.919373 757.758484,432.141632 751.175354,437.367432 
	C744.316772,442.811951 736.582581,447.186859 729.929749,452.849976 
	C717.671082,463.285004 716.765259,474.835510 725.902283,490.188904 
	C730.618408,498.113708 736.165161,505.571991 741.678162,512.987122 
	C747.407654,520.693298 745.531006,528.249756 741.729553,535.723389 
	C738.528992,542.015625 732.603577,545.227234 726.301514,547.684631 
	C725.232300,548.101562 723.861023,547.743530 722.206543,547.743530 
	C723.908813,545.861633 724.996643,544.169678 726.512268,543.064636 
	C734.964905,536.901794 734.456604,521.811218 727.411865,514.836975 
	C721.746826,509.228577 716.443054,503.255219 710.750610,497.167175 
z"/>
<path  class="steam s2" fill="#9c9187ff" opacity="1.000000" stroke="none" 
	d="
M740.252563,489.517914 
	C735.597534,478.059204 738.791748,467.021179 748.848755,461.004211 
	C748.146301,464.279053 747.682434,467.031097 746.957031,469.712341 
	C744.818298,477.617462 748.532715,483.587555 753.517761,488.921265 
	C759.047485,494.837738 764.957092,500.397888 770.657471,506.156555 
	C780.583740,516.184509 777.183289,535.006165 769.390320,542.408630 
	C762.968689,548.508362 756.122925,553.314758 747.719910,555.916931 
	C746.096497,556.419739 744.387207,556.645081 742.288330,556.055786 
	C746.476562,552.254944 750.762451,548.555298 754.831726,544.631104 
	C762.138306,537.584900 765.654175,523.756042 759.169861,513.579407 
	C756.876953,509.980865 753.743958,506.924652 751.075928,503.556335 
	C747.485352,499.023407 743.973572,494.428070 740.252563,489.517914 
z"/>



</svg>